<svg id="Layer_1" data-name="Layer 1" xmlns="http://www.w3.org/2000/svg" viewBox="0 0 55.06 53.43"><path d="M169.72,195.51h-36a9.53,9.53,0,0,1-9.53-9.53V171.15a9.49,9.49,0,0,1,2.79-6.74c1.5-1.49,3.51-2.41,6.74-2.79,8.61-1,10.51,3.55,18.2,3.51,7.46,0,9.9-4.35,17.8-3.51a10.78,10.78,0,0,1,6.74,2.79,9.53,9.53,0,0,1,2.79,6.74V186A9.53,9.53,0,0,1,169.72,195.51Z" transform="translate(-124.19 -161.47)" style="fill:#fff"/><path d="M165,207.83a14.9,14.9,0,0,1-26-1.23h0Z" transform="translate(-124.19 -161.47)" style="fill:#fff"/><path d="M167.24,200c0,.34,0,.68,0,1l-28.55,2c-.36,0-.59.09-.84.09a12.11,12.11,0,0,1-.39-3.09,14.91,14.91,0,0,1,29.82,0Z" transform="translate(-124.19 -161.47)" style="fill:#fff"/><path d="M149.94,193.91a2.12,2.12,0,1,1-2.12-2.11A2.12,2.12,0,0,1,149.94,193.91Z" transform="translate(-124.19 -161.47)" style="fill:#231f20"/><circle cx="32.01" cy="32.44" r="2.12" style="fill:#231f20"/><path d="M128.71,179.43a8,8,0,0,0,16,0Z" transform="translate(-124.19 -161.47)" style="fill:#231f20"/><path d="M158.91,179.43a8,8,0,0,0,16,0Z" transform="translate(-124.19 -161.47)" style="fill:#231f20"/></svg>